<svg width="110" height="110" viewBox="0 0 110 110" fill="none" xmlns="http://www.w3.org/2000/svg">
<circle cx="55" cy="55" r="54.5" stroke="#8D92A3" stroke-dasharray="10 10"/>
<circle cx="55" cy="55" r="45" fill="#F0F0F0"/>
<path d="M47.7763 46.676H43.3243L42.4703 49H41.4343L45.0043 39.34H46.1103L49.6663 49H48.6303L47.7763 46.676ZM47.4823 45.864L45.5503 40.572L43.6183 45.864H47.4823ZM50.7911 45.164C50.7911 44.38 50.9498 43.694 51.2671 43.106C51.5845 42.5087 52.0185 42.0513 52.5691 41.734C53.1291 41.4073 53.7591 41.244 54.4591 41.244C55.1311 41.244 55.7378 41.4073 56.2791 41.734C56.8205 42.0607 57.2171 42.4853 57.4691 43.008V38.64H58.4491V49H57.4691V47.292C57.2358 47.824 56.8531 48.2627 56.3211 48.608C55.7891 48.944 55.1638 49.112 54.4451 49.112C53.7451 49.112 53.1151 48.9487 52.5551 48.622C52.0045 48.2953 51.5705 47.8333 51.2531 47.236C50.9451 46.6387 50.7911 45.948 50.7911 45.164ZM57.4691 45.178C57.4691 44.562 57.3431 44.0207 57.0911 43.554C56.8391 43.0873 56.4938 42.728 56.0551 42.476C55.6258 42.224 55.1498 42.098 54.6271 42.098C54.0858 42.098 53.6005 42.2193 53.1711 42.462C52.7418 42.7047 52.4011 43.0593 52.1491 43.526C51.9065 43.9833 51.7851 44.5293 51.7851 45.164C51.7851 45.7893 51.9065 46.34 52.1491 46.816C52.4011 47.2827 52.7418 47.642 53.1711 47.894C53.6005 48.1367 54.0858 48.258 54.6271 48.258C55.1498 48.258 55.6258 48.132 56.0551 47.88C56.4938 47.628 56.8391 47.2687 57.0911 46.802C57.3431 46.3353 57.4691 45.794 57.4691 45.178ZM60.2384 45.164C60.2384 44.38 60.3971 43.694 60.7144 43.106C61.0317 42.5087 61.4657 42.0513 62.0164 41.734C62.5764 41.4073 63.2064 41.244 63.9064 41.244C64.5784 41.244 65.1851 41.4073 65.7264 41.734C66.2677 42.0607 66.6644 42.4853 66.9164 43.008V38.64H67.8964V49H66.9164V47.292C66.6831 47.824 66.3004 48.2627 65.7684 48.608C65.2364 48.944 64.6111 49.112 63.8924 49.112C63.1924 49.112 62.5624 48.9487 62.0024 48.622C61.4517 48.2953 61.0177 47.8333 60.7004 47.236C60.3924 46.6387 60.2384 45.948 60.2384 45.164ZM66.9164 45.178C66.9164 44.562 66.7904 44.0207 66.5384 43.554C66.2864 43.0873 65.9411 42.728 65.5024 42.476C65.0731 42.224 64.5971 42.098 64.0744 42.098C63.5331 42.098 63.0477 42.2193 62.6184 42.462C62.1891 42.7047 61.8484 43.0593 61.5964 43.526C61.3537 43.9833 61.2324 44.5293 61.2324 45.164C61.2324 45.7893 61.3537 46.34 61.5964 46.816C61.8484 47.2827 62.1891 47.642 62.6184 47.894C63.0477 48.1367 63.5331 48.258 64.0744 48.258C64.5971 48.258 65.0731 48.132 65.5024 47.88C65.9411 47.628 66.2864 47.2687 66.5384 46.802C66.7904 46.3353 66.9164 45.794 66.9164 45.178ZM42.5196 63.028C42.5196 63.868 42.2443 64.5447 41.6936 65.058C41.1429 65.5713 40.3169 65.828 39.2156 65.828H37.2416V70H36.2616V60.214H39.2156C40.3076 60.214 41.1289 60.4707 41.6796 60.984C42.2396 61.4973 42.5196 62.1787 42.5196 63.028ZM39.2156 64.988C40.7463 64.988 41.5116 64.3347 41.5116 63.028C41.5116 62.3747 41.3296 61.88 40.9656 61.544C40.6016 61.208 40.0183 61.04 39.2156 61.04H37.2416V64.988H39.2156ZM47.8039 62.216C48.3826 62.216 48.9006 62.3373 49.3579 62.58C49.8246 62.8227 50.1886 63.196 50.4499 63.7C50.7206 64.1947 50.8559 64.8013 50.8559 65.52V70H49.8899V65.632C49.8899 64.8013 49.6799 64.1667 49.2599 63.728C48.8493 63.2893 48.2846 63.07 47.5659 63.07C46.8286 63.07 46.2406 63.3033 45.8019 63.77C45.3633 64.2367 45.1439 64.9227 45.1439 65.828V70H44.1639V59.64H45.1439V63.658C45.3866 63.2007 45.7413 62.846 46.2079 62.594C46.6839 62.342 47.2159 62.216 47.8039 62.216ZM56.3693 70.112C55.6507 70.112 55.002 69.9533 54.4233 69.636C53.854 69.3093 53.4013 68.852 53.0653 68.264C52.7387 67.6667 52.5753 66.9713 52.5753 66.178C52.5753 65.3847 52.7433 64.694 53.0793 64.106C53.4153 63.5087 53.8727 63.0513 54.4513 62.734C55.03 62.4073 55.6787 62.244 56.3973 62.244C57.116 62.244 57.7647 62.4073 58.3433 62.734C58.9313 63.0513 59.3887 63.5087 59.7153 64.106C60.0513 64.694 60.2193 65.3847 60.2193 66.178C60.2193 66.962 60.0513 67.6527 59.7153 68.25C59.3793 68.8473 58.9173 69.3093 58.3293 69.636C57.7413 69.9533 57.088 70.112 56.3693 70.112ZM56.3693 69.258C56.8733 69.258 57.34 69.146 57.7693 68.922C58.1987 68.6887 58.544 68.3433 58.8053 67.886C59.076 67.4193 59.2113 66.85 59.2113 66.178C59.2113 65.506 59.0807 64.9413 58.8193 64.484C58.558 64.0173 58.2127 63.672 57.7833 63.448C57.354 63.2147 56.8873 63.098 56.3833 63.098C55.8793 63.098 55.4127 63.2147 54.9833 63.448C54.554 63.672 54.2087 64.0173 53.9473 64.484C53.6953 64.9413 53.5693 65.506 53.5693 66.178C53.5693 66.85 53.6953 67.4193 53.9473 67.886C54.2087 68.3433 54.5493 68.6887 54.9693 68.922C55.3987 69.146 55.8653 69.258 56.3693 69.258ZM63.2797 63.182V67.928C63.2797 68.3947 63.3684 68.7167 63.5457 68.894C63.7231 69.0713 64.0357 69.16 64.4837 69.16H65.3797V70H64.3297C63.6391 70 63.1257 69.8413 62.7897 69.524C62.4537 69.1973 62.2857 68.6653 62.2857 67.928V63.182H61.2217V62.356H62.2857V60.438H63.2797V62.356H65.3797V63.182H63.2797ZM70.342 70.112C69.6233 70.112 68.9746 69.9533 68.396 69.636C67.8266 69.3093 67.374 68.852 67.038 68.264C66.7113 67.6667 66.548 66.9713 66.548 66.178C66.548 65.3847 66.716 64.694 67.052 64.106C67.388 63.5087 67.8453 63.0513 68.424 62.734C69.0026 62.4073 69.6513 62.244 70.37 62.244C71.0886 62.244 71.7373 62.4073 72.316 62.734C72.904 63.0513 73.3613 63.5087 73.688 64.106C74.024 64.694 74.192 65.3847 74.192 66.178C74.192 66.962 74.024 67.6527 73.688 68.25C73.352 68.8473 72.89 69.3093 72.302 69.636C71.714 69.9533 71.0606 70.112 70.342 70.112ZM70.342 69.258C70.846 69.258 71.3126 69.146 71.742 68.922C72.1713 68.6887 72.5166 68.3433 72.778 67.886C73.0486 67.4193 73.184 66.85 73.184 66.178C73.184 65.506 73.0533 64.9413 72.792 64.484C72.5306 64.0173 72.1853 63.672 71.756 63.448C71.3266 63.2147 70.86 63.098 70.356 63.098C69.852 63.098 69.3853 63.2147 68.956 63.448C68.5266 63.672 68.1813 64.0173 67.92 64.484C67.668 64.9413 67.542 65.506 67.542 66.178C67.542 66.85 67.668 67.4193 67.92 67.886C68.1813 68.3433 68.522 68.6887 68.942 68.922C69.3713 69.146 69.838 69.258 70.342 69.258Z" fill="#8D92A3"/>
</svg>
